<?xml version="1.0" standalone="no"?>
<!DOCTYPE svg PUBLIC "-//W3C//DTD SVG 20010904//EN"
 "http://www.w3.org/TR/2001/REC-SVG-20010904/DTD/svg10.dtd">
<svg version="1.0" xmlns="http://www.w3.org/2000/svg"
 width="512.000000pt" height="511.000000pt" viewBox="0 0 512.000000 511.000000"
 preserveAspectRatio="xMidYMid meet">

<g transform="translate(0.000000,511.000000) scale(0.100000,-0.100000)"
fill="#000000" stroke="none">
<path d="M1690 4956 c-403 -141 -808 -422 -1077 -745 -29 -36 -53 -72 -53 -80
0 -9 -10 -36 -21 -61 -11 -25 -25 -76 -30 -115 -5 -38 -12 -81 -16 -95 -3 -14
-6 -101 -7 -195 -2 -179 -1 -186 63 -412 l21 -72 -26 -93 c-14 -51 -31 -115
-39 -143 -8 -28 -10 -51 -4 -53 5 -2 3 -13 -3 -25 -18 -31 -19 -143 -2 -207
18 -69 18 -80 -1 -80 -13 0 -14 -4 -5 -20 6 -11 15 -18 21 -15 5 4 9 0 10 -7
1 -15 5 -40 14 -77 5 -25 5 -26 -11 -6 -15 18 -16 18 -10 2 3 -10 6 -25 6 -33
0 -12 4 -12 21 -4 14 8 18 17 14 28 -14 33 -22 92 -13 92 6 0 6 13 2 33 -10
42 -12 158 -2 178 3 8 9 46 13 84 5 59 31 142 41 132 2 -2 6 -19 8 -38 3 -19
5 -36 5 -38 1 -3 8 4 16 15 13 17 14 13 11 -46 -2 -36 -2 -59 1 -52 3 6 11 12
19 12 11 0 14 -20 14 -97 1 -66 5 -106 15 -123 8 -14 14 -44 15 -66 0 -28 5
-44 15 -48 10 -3 15 1 15 12 0 23 22 72 33 72 4 0 17 -21 28 -47 11 -27 28
-56 36 -66 18 -19 20 -94 3 -111 -6 -6 -10 -17 -10 -25 0 -9 -7 -29 -15 -45
-20 -38 -19 -57 1 -49 14 5 15 1 9 -27 -5 -23 -4 -30 4 -26 7 5 11 -2 11 -18
0 -14 -4 -26 -10 -26 -5 0 -10 -6 -10 -14 0 -29 -19 -26 -34 5 -9 18 -16 38
-16 46 0 7 -7 13 -15 13 -13 0 -14 -4 -4 -21 9 -17 8 -20 -3 -15 -7 3 -20 9
-29 12 -13 4 -16 19 -16 63 0 31 -5 66 -11 76 -10 16 -11 9 -7 -37 2 -31 0
-60 -5 -63 -12 -8 26 -90 42 -90 8 0 14 -16 16 -42 2 -24 7 -43 13 -43 5 0 9
-8 9 -17 0 -16 -2 -16 -11 -3 -17 24 -1 -27 28 -90 17 -35 22 -55 14 -58 -13
-4 -15 -34 -2 -48 6 -5 17 -38 25 -74 8 -36 22 -94 31 -130 23 -89 24 -249 1
-262 -10 -6 -16 -22 -16 -47 l0 -39 58 3 c31 2 71 8 87 15 42 17 95 22 95 8 0
-7 -21 -32 -47 -57 -27 -25 -77 -84 -113 -131 -35 -47 -93 -113 -127 -148 -70
-69 -77 -95 -37 -127 17 -13 26 -31 26 -47 0 -16 12 -38 29 -54 l29 -28 0 31
c0 44 9 63 36 74 19 6 24 16 24 41 0 53 12 63 57 52 32 -8 37 -13 35 -33 -4
-27 29 -67 64 -75 15 -4 24 -14 24 -26 0 -19 24 -28 34 -12 8 13 -35 126 -51
135 -11 7 -13 20 -8 60 4 29 14 64 21 79 8 15 26 60 40 100 15 40 34 91 44
113 9 22 20 48 23 57 4 10 11 18 17 18 15 0 12 -52 -5 -74 -8 -11 -15 -31 -15
-45 0 -13 -12 -53 -26 -88 -32 -82 -29 -99 16 -95 40 3 65 29 80 84 6 20 23
47 38 58 15 12 26 24 25 26 -2 2 -2 7 -1 12 1 4 2 50 2 102 l1 95 28 3 c15 2
27 6 27 10 0 4 11 20 25 36 14 16 25 33 25 38 0 5 5 6 11 3 5 -4 19 1 31 12
24 22 22 22 46 0 11 -10 33 -21 48 -26 60 -15 90 -139 59 -246 -21 -70 -57
-146 -79 -164 -9 -8 -16 -25 -16 -40 0 -15 -7 -53 -15 -85 -8 -32 -16 -75 -17
-97 -1 -26 -9 -46 -24 -60 -27 -25 -23 -39 10 -39 36 0 46 -19 46 -90 0 -88
-5 -101 -46 -130 -42 -28 -63 -21 -79 28 -11 31 -5 123 10 170 11 34 -25 29
-62 -10 -36 -38 -45 -66 -47 -146 l-1 -57 -80 -1 c-44 -1 -89 -2 -100 -3 l-20
-2 20 -15 c37 -29 98 -56 104 -47 9 13 42 26 71 28 14 1 71 5 126 9 l102 8 12
-36 c6 -20 11 -60 9 -89 -5 -116 -8 -112 77 -147 147 -61 318 -109 529 -150
105 -20 110 -20 122 -3 7 10 25 32 40 50 16 17 34 38 41 47 14 17 97 22 120 8
13 -9 6 -68 -9 -78 -16 -10 -9 -24 11 -24 11 0 29 9 40 20 11 11 24 20 30 20
5 0 13 7 18 16 16 28 37 -48 21 -77 l-11 -22 77 6 c43 4 96 8 119 8 23 1 33 3
24 6 -13 3 -18 14 -18 38 0 18 -6 35 -12 38 -10 3 -8 9 5 24 20 23 21 35 6 50
-9 9 -21 5 -48 -18 -40 -33 -79 -37 -116 -13 -21 14 -22 18 -10 30 7 8 25 18
39 24 49 18 25 43 -52 53 -32 4 -45 2 -49 -9 -3 -8 -9 -11 -14 -8 -5 3 -23 2
-40 -1 -34 -8 -34 -28 -1 -33 41 -6 22 -23 -23 -21 -25 2 -45 7 -45 11 0 13
62 68 76 68 6 0 19 9 29 20 27 30 8 43 -43 32 -28 -7 -44 -6 -52 2 -9 8 -20 1
-46 -28 -19 -22 -34 -34 -34 -27 0 8 -15 4 -43 -11 -31 -17 -43 -30 -45 -51
-4 -30 -11 -34 -30 -15 -10 10 -17 10 -32 0 -24 -15 -22 -20 -44 98 -20 106
-20 144 -1 164 8 8 15 19 15 25 0 6 4 11 10 11 6 0 7 18 3 45 -4 33 -2 45 7
45 8 0 10 -8 6 -25 -5 -18 -2 -25 8 -25 8 0 18 5 22 11 4 8 9 7 15 -2 5 -8 3
-22 -4 -34 -16 -27 -16 -81 1 -78 18 4 15 -21 -8 -50 -25 -32 -25 -37 3 -37
50 0 64 12 94 75 28 58 29 65 15 91 -10 20 -12 35 -5 53 12 33 -12 111 -34
111 -11 0 -13 6 -8 23 3 12 9 33 12 47 4 13 37 55 75 94 37 38 68 74 68 79 0
5 9 7 20 4 11 -3 18 -1 14 4 -3 5 -1 9 5 9 12 0 91 113 91 129 0 6 5 11 10 11
6 0 10 6 10 14 0 8 6 16 14 19 8 3 16 14 19 24 2 10 3 0 0 -22 -2 -22 -9 -42
-15 -46 -6 -4 -8 -14 -5 -22 6 -16 -5 -48 -82 -239 -6 -16 -8 -28 -5 -28 3 0
-4 -15 -15 -34 -24 -38 -27 -69 -8 -83 6 -5 31 -15 54 -23 35 -11 45 -11 58 0
13 10 24 11 56 1 58 -18 139 1 140 32 1 20 2 20 9 -3 13 -41 11 -49 -15 -56
-14 -3 -25 -12 -25 -20 0 -8 -7 -14 -15 -14 -21 0 -49 -58 -36 -74 7 -8 4 -15
-10 -24 -10 -7 -19 -22 -19 -35 0 -13 -5 -28 -12 -35 -9 -9 -9 -15 0 -24 9 -9
9 -15 -2 -27 -7 -9 -17 -26 -20 -38 -6 -20 -4 -23 18 -23 14 0 26 -6 26 -13 0
-18 49 -68 61 -62 5 4 9 25 9 48 0 53 24 122 56 161 67 83 94 119 94 125 0 10
51 47 78 55 29 9 40 -17 18 -40 -25 -25 0 -89 30 -77 10 4 14 -4 14 -30 0 -20
-4 -46 -9 -59 -5 -15 -4 -36 3 -58 10 -29 9 -46 -6 -100 -10 -35 -24 -68 -32
-72 -26 -14 -46 -39 -46 -55 0 -12 7 -14 30 -10 25 6 30 3 30 -13 0 -15 7 -20
29 -20 16 0 41 4 55 9 23 9 24 12 14 47 -7 27 -6 43 2 59 9 17 9 28 1 43 -16
29 -15 30 22 37 36 7 136 -25 157 -50 10 -12 7 -17 -14 -26 -28 -13 -33 -28
-14 -47 17 -17 45 -15 57 6 8 13 10 13 11 2 0 -10 3 -11 11 -3 9 9 2 24 -27
58 -45 56 -104 88 -161 89 -24 1 -43 4 -43 7 0 4 7 26 15 50 9 24 13 49 11 56
-9 22 -36 15 -48 -12 -17 -37 -24 -30 -20 19 3 33 7 43 18 39 9 -3 14 2 14 15
0 12 5 24 10 27 6 4 8 15 5 25 -4 12 3 27 18 42 l23 23 -20 17 c-25 19 -22 23
22 31 22 5 32 3 33 -6 1 -12 5 -40 12 -83 2 -12 11 -33 20 -47 19 -29 38 -96
40 -142 2 -26 6 -30 31 -30 20 -1 39 -12 62 -38 32 -34 44 -60 27 -55 -17 4
-54 -14 -50 -25 2 -6 15 -19 28 -30 25 -18 26 -18 152 32 69 27 135 55 147 61
l21 11 -25 24 c-30 28 -32 46 -9 83 24 39 83 94 83 77 0 -7 10 -15 23 -17 14
-2 23 -11 25 -25 5 -34 17 -28 30 13 10 33 9 39 -11 55 -21 18 -21 18 -2 19
19 0 18 2 -4 19 -29 22 -18 31 38 34 44 1 81 -23 81 -55 0 -10 5 -18 11 -18 7
0 9 10 5 25 -4 14 -3 25 2 25 15 0 52 -45 52 -63 0 -23 4 -22 56 14 35 23 43
35 39 50 -7 20 9 27 20 9 4 -6 11 -8 16 -4 6 4 3 14 -7 25 -19 21 -13 24 17 9
15 -9 26 -5 55 16 21 17 33 33 29 42 -3 9 0 12 9 9 17 -7 66 43 66 67 0 14 3
16 13 7 11 -8 19 -5 36 13 l22 24 -20 43 c-12 23 -21 45 -21 47 0 9 56 -11 73
-26 16 -14 20 -13 57 23 22 22 40 43 40 47 0 16 -29 8 -33 -10 -3 -12 -6 -8
-11 13 -15 59 -18 62 -31 31 l-12 -29 -5 36 c-2 20 -2 34 1 32 6 -7 30 64 31
90 1 17 3 17 12 -5 6 -14 12 -27 12 -30 1 -3 7 -14 14 -25 11 -18 12 -16 7 15
-5 35 -5 35 11 12 22 -30 40 -28 20 3 -19 28 -21 48 -3 24 7 -8 24 -23 39 -33
27 -17 27 -17 23 3 -2 12 1 21 7 21 5 0 8 7 5 14 -4 9 2 17 14 21 10 4 19 13
19 21 0 8 13 17 30 21 35 6 48 22 30 33 -9 6 -3 13 20 25 l34 17 -25 14 -24
13 32 1 c23 0 31 4 27 14 -3 7 2 16 11 20 9 3 14 10 10 15 -3 6 4 15 15 21 20
11 28 40 11 40 -5 0 -7 9 -4 20 6 22 -12 28 -21 8 -4 -9 -5 -8 -5 2 1 8 1 24
0 35 -1 17 -3 18 -11 5 -5 -8 -10 -27 -10 -41 0 -14 -11 -36 -25 -49 -14 -13
-25 -29 -25 -35 0 -7 -10 -20 -21 -31 -24 -21 -24 -23 -3 55 10 36 -17 22 -38
-20 -9 -19 -17 -28 -18 -21 -1 25 -20 11 -20 -15 0 -35 -7 -45 -47 -68 -18
-11 -28 -22 -23 -25 6 -4 2 -15 -10 -28 -12 -13 -17 -28 -13 -38 4 -12 3 -15
-5 -10 -8 4 -12 0 -12 -11 0 -15 -2 -16 -10 -3 -12 19 -13 33 -1 26 4 -3 8 23
8 58 -1 58 -3 63 -22 59 -20 -4 -20 -4 -1 11 15 12 16 16 5 16 -8 1 -1 8 15
17 25 13 27 17 13 25 -10 5 -22 6 -27 3 -6 -3 -10 -2 -10 4 0 21 33 29 71 16
40 -14 55 -10 38 11 -8 9 -5 15 10 24 24 12 29 35 6 26 -18 -6 -19 -1 -5 25 8
14 7 19 -2 19 -9 0 -9 3 2 10 8 5 11 10 6 10 -4 0 -1 11 8 24 14 22 14 27 0
56 -16 31 -16 31 -35 11 -10 -11 -19 -27 -19 -36 0 -8 -4 -15 -9 -15 -5 0 -7
-9 -4 -20 3 -11 0 -20 -6 -20 -6 0 -12 10 -12 23 -1 12 -6 -7 -11 -43 -10 -70
-18 -85 -49 -93 -20 -5 -20 -5 -3 14 15 17 16 22 4 44 -16 30 -30 17 -30 -27
0 -31 -16 -38 -24 -11 -3 10 -4 2 -2 -17 3 -23 -4 -53 -19 -85 -17 -35 -24
-43 -24 -28 -2 42 -21 35 -21 -7 0 -47 -11 -73 -48 -113 -34 -35 -43 -34 -31
5 11 39 3 50 -18 23 -15 -19 -15 -19 -8 4 4 14 2 34 -6 50 -28 53 -62 70 -38
18 9 -21 8 -29 -7 -49 -26 -35 -57 -48 -78 -32 -10 7 -17 15 -17 18 2 19 0 26
-10 26 -6 0 -9 -9 -6 -20 4 -17 2 -20 -15 -14 -11 3 -48 14 -83 24 -34 10 -73
23 -86 30 l-23 13 24 9 c13 5 31 6 39 3 9 -4 6 4 -8 19 -28 30 -36 33 -27 10
5 -12 2 -15 -10 -10 -8 3 -20 6 -25 6 -4 0 -5 7 -2 17 4 11 3 14 -5 9 -7 -4
-12 -2 -12 3 0 14 22 14 57 -1 15 -6 31 -11 35 -10 4 1 20 -3 35 -10 15 -6 32
-10 37 -9 4 1 14 -4 22 -10 8 -6 14 -8 14 -3 0 13 -16 36 -24 35 -36 -6 -96
42 -96 77 0 10 -7 27 -15 38 -19 25 -19 44 0 44 9 0 12 6 9 15 -4 8 -1 15 4
15 6 0 14 9 17 20 9 28 25 25 25 -5 0 -14 -5 -25 -11 -25 -6 0 -8 -9 -3 -22 9
-30 14 -35 22 -23 4 6 13 10 20 11 6 1 18 2 26 3 20 2 8 47 -20 74 -27 25 -30
40 -11 56 11 8 18 6 31 -8 14 -15 21 -17 41 -7 17 8 21 14 13 23 -8 10 -6 13
6 13 9 0 15 3 14 8 -1 4 4 18 11 31 l14 24 -38 -22 c-28 -16 -36 -18 -32 -6 4
8 2 15 -2 15 -5 0 -11 -7 -15 -15 -3 -8 -10 -15 -15 -15 -6 0 -8 8 -4 18 6 15
4 15 -15 -2 -12 -11 -22 -25 -22 -31 0 -7 -10 -25 -22 -40 l-22 -28 -8 24 c-6
17 -5 25 7 31 8 5 15 15 15 22 0 7 16 25 35 40 19 16 35 33 35 38 0 14 26 38
41 38 10 0 10 3 1 12 -10 10 -7 15 10 25 19 10 20 12 6 13 -25 0 -22 25 5 43
12 9 17 16 10 16 -13 1 -113 -114 -113 -129 0 -6 -18 -21 -39 -36 -35 -23 -43
-36 -66 -109 -26 -80 -42 -106 -75 -118 -10 -3 -7 -6 8 -6 13 -1 20 -5 17 -11
-4 -6 -16 -8 -28 -5 -21 6 -22 6 -3 -9 12 -10 15 -16 7 -16 -8 0 -11 -6 -7
-16 4 -11 2 -15 -6 -11 -9 3 -13 -6 -14 -27 0 -17 -4 -43 -7 -58 -7 -28 -26
-34 -94 -30 -31 1 -29 -6 4 -19 18 -7 30 -6 37 1 16 16 36 12 36 -9 0 -31 -38
-111 -52 -109 -6 2 -14 -5 -16 -15 -2 -10 2 -17 12 -17 9 0 16 -3 16 -7 0 -5
-11 -8 -25 -8 -16 0 -23 5 -21 12 4 9 -4 11 -24 6 -27 -5 -30 -3 -30 18 0 19
2 21 10 9 7 -12 10 -11 15 5 4 11 11 28 16 37 6 13 6 18 -3 18 -19 0 1 14 22
15 16 1 18 -3 13 -24 -4 -20 -3 -23 6 -15 7 6 11 24 9 40 -2 22 -8 28 -23 26
-11 -1 -28 -3 -37 -4 -10 -1 -18 -8 -18 -15 0 -7 -7 -10 -17 -6 -12 5 -15 2
-10 -10 3 -9 2 -17 -3 -17 -6 0 -10 6 -10 13 0 13 -39 51 -45 45 -6 -6 28
-133 37 -136 4 -2 8 -11 8 -19 0 -12 7 -14 34 -9 25 5 39 2 51 -11 12 -11 14
-18 6 -21 -6 -2 -9 -8 -6 -12 3 -5 0 -12 -6 -16 -9 -5 -10 1 -5 20 6 25 5 26
-14 14 -17 -11 -22 -11 -30 1 -7 12 -10 9 -15 -12 -4 -16 -2 -33 4 -41 9 -11
9 -15 -1 -18 -8 -3 -17 8 -23 25 -18 56 -34 44 -34 -27 0 -68 4 -77 23 -51 6
9 33 22 60 30 48 15 48 15 41 -8 -28 -89 -28 -104 -6 -126 11 -11 21 -25 21
-31 0 -5 7 -10 16 -10 12 0 15 6 10 23 -8 34 32 35 44 1 14 -35 13 -38 -15
-66 -27 -28 -42 -104 -22 -111 8 -3 5 -12 -8 -27 -11 -13 -14 -20 -7 -16 14 8
17 -10 2 -19 -5 -3 -10 -12 -10 -18 0 -7 11 2 25 18 21 25 26 28 35 15 14 -22
12 -30 -10 -38 -12 -4 -32 -26 -45 -47 -13 -22 -25 -35 -25 -30 -3 26 -11 64
-21 102 -6 23 -9 49 -6 57 10 25 -5 26 -24 2 -12 -15 -18 -35 -15 -55 3 -31
-2 -35 -36 -32 -10 1 -18 -4 -18 -11 -1 -8 -7 -5 -16 7 -14 18 -15 13 -10 -62
4 -69 3 -83 -10 -83 -8 0 -17 -7 -20 -15 -5 -12 -10 -13 -19 -5 -10 8 -16 7
-23 -6 -8 -14 -12 -6 -17 38 -5 42 -3 63 9 87 15 29 15 31 0 31 -13 0 -15 6
-10 28 4 15 14 32 22 38 15 12 19 70 5 78 -6 4 -5 17 1 34 8 20 7 42 -4 85
-11 42 -15 106 -14 225 2 165 2 168 31 222 17 30 34 58 38 61 4 3 11 31 14 63
6 59 27 74 29 20 1 -16 2 -41 3 -55 0 -15 8 -30 17 -33 14 -5 15 4 13 76 l-3
81 39 17 c40 17 40 17 17 31 -12 7 -22 18 -22 23 0 5 9 1 21 -10 20 -18 20
-18 15 11 -4 17 -3 24 0 18 8 -18 25 -16 18 2 -4 9 0 15 8 15 26 0 50 41 52
90 1 14 7 35 14 47 11 20 10 23 -4 23 -16 0 -15 2 1 20 27 30 7 47 -35 30 -30
-12 -31 -15 -25 -54 5 -39 5 -40 -8 -16 -26 46 -28 76 -7 103 11 13 24 36 29
49 9 25 9 25 -39 20 -46 -4 -47 -3 -47 22 0 30 4 31 31 11 11 -8 29 -12 39 -9
11 3 30 1 42 -6 19 -10 27 -9 49 5 41 27 31 55 -32 91 -28 16 -35 17 -54 5
-18 -11 -23 -10 -42 8 l-20 21 31 0 c34 0 70 29 37 31 -13 0 -7 6 15 15 19 9
45 13 58 9 15 -3 22 -1 21 7 -2 7 12 13 33 15 l37 3 -9 -41 c-10 -42 -5 -79
11 -79 4 0 10 10 13 21 4 14 11 20 21 16 11 -5 17 4 23 36 7 36 13 43 38 47
l30 5 -24 24 c-22 22 -23 26 -10 50 17 30 42 34 47 9 2 -10 -1 -18 -7 -18 -14
0 -14 -47 -1 -55 6 -3 7 -18 4 -32 -5 -17 -3 -24 4 -19 6 3 27 -3 46 -14 38
-21 42 -20 26 11 -7 13 -7 19 0 19 17 0 11 18 -16 45 -14 14 -30 23 -35 20 -5
-4 -9 0 -9 8 0 8 12 18 27 22 l26 6 -26 26 c-25 26 -26 26 -69 11 -24 -9 -60
-19 -80 -23 -23 -3 -38 -12 -38 -20 0 -8 -8 -19 -17 -24 -15 -9 -15 -10 -2
-11 8 0 19 4 25 9 5 4 24 13 42 19 30 10 33 9 30 -6 -2 -11 -13 -17 -31 -17
-16 0 -34 -8 -41 -18 -14 -19 -41 -23 -51 -7 -10 15 -71 12 -85 -5 -17 -20
-32 -19 -28 2 2 11 -6 22 -19 28 -30 13 -29 25 1 25 25 0 43 15 29 23 -5 2
-21 7 -37 11 -27 7 -28 6 -15 -11 13 -17 13 -17 -11 -2 -13 9 -28 27 -32 40
-8 24 -8 24 -5 -2 2 -14 -2 -31 -10 -37 -7 -7 -13 -24 -13 -38 0 -14 -4 -23
-9 -20 -5 4 -7 -2 -4 -12 2 -10 -3 -25 -13 -33 -11 -9 -15 -9 -10 -1 5 8 0 12
-13 12 -16 0 -19 -5 -16 -30 4 -33 -6 -38 -25 -15 -10 11 -9 17 3 29 13 14 13
19 -1 50 -21 46 -28 39 -25 -23 4 -58 -5 -63 -42 -24 -29 32 -30 39 -10 86 21
51 19 56 -10 17 -14 -19 -25 -42 -25 -52 0 -10 -5 -18 -11 -18 -5 0 -8 4 -4 9
3 5 -2 16 -10 24 -21 21 -19 27 9 27 33 0 42 16 16 30 -14 8 -20 8 -20 0 0 -7
-6 -5 -15 4 -8 8 -15 18 -15 23 0 5 -6 15 -12 22 -7 6 -13 33 -13 59 0 44 -2
47 -27 50 -17 2 -28 9 -28 19 0 9 6 13 15 9 19 -7 19 8 0 28 -13 12 -15 43
-14 168 0 84 1 194 1 243 0 78 -12 149 -36 215 -3 8 -2 22 3 30 8 12 13 11 32
-5 19 -17 18 -13 -7 25 -24 39 -28 57 -32 135 -3 98 -11 132 -49 213 -13 30
-22 56 -19 60 3 3 6 0 6 -6 0 -7 4 -12 9 -12 6 0 3 16 -5 35 -7 19 -14 48 -14
65 0 34 -16 32 -29 -4 -8 -19 -10 -18 -25 18 -9 22 -14 46 -11 54 2 7 -5 26
-17 42 -12 17 -19 33 -15 36 10 11 27 -7 27 -29 0 -13 3 -17 8 -11 4 6 13 13
20 15 10 3 6 12 -12 32 -32 34 -119 193 -114 208 2 7 17 0 36 -16 35 -29 43
-23 13 9 -21 23 -84 145 -96 186 -3 14 -14 41 -22 60 -17 37 -31 85 -38 135
-3 16 -9 31 -15 33 -5 2 -10 11 -10 19 0 37 -138 299 -182 347 -10 11 -18 23
-18 27 0 4 -18 15 -39 25 -30 13 -43 27 -57 61 -10 23 -23 43 -29 43 -6 0 -26
13 -44 29 -23 20 -49 32 -84 37 -78 11 -171 7 -227 -11 -18 -6 -188 77 -201
98 -4 5 -12 6 -18 3 -6 -4 -11 -3 -11 2 0 5 -9 12 -20 15 -11 3 -19 11 -18 19
5 23 -80 20 -152 -6z m370 -196 c0 -5 -2 -10 -4 -10 -3 0 -8 5 -11 10 -3 6 -1
10 4 10 6 0 11 -4 11 -10z m45 -89 c8 -14 -13 -24 -33 -16 -14 5 -14 7 -2 15
19 12 27 12 35 1z m69 -128 c3 -4 15 -8 26 -10 47 -7 57 -11 90 -31 78 -46
143 -98 156 -124 8 -16 18 -28 22 -28 4 0 18 -18 32 -40 13 -22 28 -40 32 -40
4 0 8 -6 8 -13 0 -6 16 -35 36 -62 44 -61 69 -109 90 -172 9 -26 21 -59 26
-73 6 -14 11 -39 13 -57 1 -17 10 -44 19 -59 10 -14 12 -23 5 -19 -8 5 -10 4
-5 -4 9 -15 12 -34 27 -176 10 -105 43 -277 57 -299 9 -15 11 -34 18 -211 6
-157 4 -201 -31 -500 -34 -303 -111 -466 -327 -699 -46 -48 -87 -98 -93 -110
-5 -12 -20 -36 -32 -53 -13 -17 -23 -35 -23 -40 0 -37 -150 -147 -166 -122 -3
6 -11 8 -18 6 -6 -3 -25 1 -41 8 -17 7 -24 14 -16 14 13 1 7 15 -7 17 -19 2
-41 17 -37 24 3 5 24 11 47 15 l42 7 -39 21 c-26 13 -40 16 -43 8 -2 -6 -13
-11 -24 -11 -15 0 -19 5 -15 20 3 12 1 17 -5 14 -12 -7 -49 26 -42 37 3 5 1 9
-5 9 -5 0 -13 20 -17 45 -5 36 -10 45 -23 40 -26 -8 -43 45 -21 67 9 10 17 35
18 57 3 40 3 41 -43 52 -67 17 -38 28 64 24 73 -2 208 10 144 14 -12 0 -28 4
-37 7 -19 7 -21 55 -4 72 9 9 6 16 -10 30 -12 11 -22 27 -22 36 0 9 -6 16 -14
16 -24 0 -29 20 -10 35 11 8 29 15 41 15 13 0 52 10 88 21 61 21 64 23 43 34
-26 13 -38 10 -38 -11 0 -8 -7 -14 -15 -14 -8 0 -15 8 -15 17 0 14 -3 13 -16
-5 -26 -38 -51 -25 -45 24 1 11 -72 44 -96 44 -18 0 -20 51 -4 90 14 35 96 98
109 85 4 -3 0 -10 -8 -15 -12 -8 -12 -10 3 -16 9 -3 15 -10 12 -14 -7 -11 5
-40 15 -40 5 0 6 8 3 19 -2 10 0 36 6 57 11 41 3 55 -28 48 -18 -5 -110 139
-110 171 1 11 -2 37 -6 57 -5 26 -2 54 10 90 20 60 20 117 0 196 -8 30 -13 58
-10 62 2 3 0 34 -5 68 -8 59 7 152 22 136 4 -3 4 3 1 15 -3 11 -8 19 -12 16
-4 -2 -15 7 -25 20 -10 13 -24 21 -31 19 -13 -5 -42 15 -92 64 -13 12 -30 22
-38 22 -8 0 -15 4 -15 10 0 9 -112 90 -125 90 -19 0 -60 45 -71 77 -16 44 -9
63 23 63 13 0 21 4 18 10 -3 6 1 10 10 10 11 0 15 -5 11 -15 -3 -8 -1 -15 4
-15 6 0 10 11 10 25 0 14 5 25 10 25 6 0 10 6 9 13 -3 28 2 39 16 33 17 -6 19
2 6 23 -17 26 5 51 39 44 40 -8 38 4 -11 56 -42 44 -42 44 -13 37 29 -6 29 -6
5 8 -23 13 -23 14 -5 24 10 6 15 14 11 18 -5 5 -12 2 -17 -6 -6 -8 -10 -13
-10 -10 -9 51 -6 70 9 71 11 0 9 3 -6 9 -13 5 -23 12 -23 14 0 3 7 3 15 0 12
-5 15 2 15 29 0 19 6 40 14 46 7 6 16 25 20 42 4 20 10 28 18 24 7 -3 6 0 -3
6 -14 11 -13 15 12 39 16 15 26 30 22 33 -3 4 8 10 26 13 18 4 35 13 38 20 3
8 9 14 14 14 12 0 55 43 52 53 -2 4 0 6 5 5 13 -3 157 25 168 34 7 5 20 0 34
-12 13 -11 24 -20 26 -20 2 0 15 11 30 25 28 26 36 29 48 18z m473 -183 c-2
-23 -10 -17 -12 10 -1 10 2 17 6 14 4 -2 7 -13 6 -24z m33 -122 c0 -17 -18 -6
-28 17 -19 41 -14 53 8 20 11 -16 20 -33 20 -37z m56 -355 c-3 -7 0 -13 7 -13
20 0 93 -178 79 -192 -5 -5 -16 18 -26 49 -10 32 -25 67 -32 78 -8 11 -14 28
-14 38 0 10 -4 15 -10 12 -5 -3 -10 -3 -11 2 -2 24 -7 52 -12 83 l-7 35 15
-40 c9 -22 13 -45 11 -52z m91 -315 c-3 -8 -6 -5 -6 6 -1 11 2 17 5 13 3 -3 4
-12 1 -19z m20 0 c-3 -8 -6 -5 -6 6 -1 11 2 17 5 13 3 -3 4 -12 1 -19z m22
-60 c1 -5 -3 -8 -9 -8 -5 0 -10 12 -9 28 0 24 1 25 9 7 5 -11 9 -23 9 -27z
m119 7 c-3 -3 -9 2 -12 12 -6 14 -5 15 5 6 7 -7 10 -15 7 -18z m-121 -82 c-3
-10 -5 -2 -5 17 0 19 2 27 5 18 2 -10 2 -26 0 -35z m171 1 c-4 -3 -12 5 -18
18 -12 22 -12 22 6 6 10 -10 15 -20 12 -24z m12 -35 c0 -6 -4 -7 -10 -4 -5 3
-10 11 -10 16 0 6 5 7 10 4 6 -3 10 -11 10 -16z m-1462 -121 c11 -29 10 -35
-5 -45 -28 -21 -46 -17 -33 8 7 11 9 32 6 45 -10 37 17 30 32 -8z m-58 2 c0
-5 -4 -10 -10 -10 -5 0 -10 5 -10 10 0 6 5 10 10 10 6 0 10 -4 10 -10z m1576
-38 c-4 -3 -12 0 -19 7 -9 9 -9 14 3 21 11 7 16 5 18 -6 2 -9 1 -18 -2 -22z
m-61 -282 c16 -32 19 -50 8 -50 -9 0 -33 49 -33 67 0 21 8 15 25 -17z m-13
-97 c10 -26 15 -49 13 -52 -8 -8 -16 6 -25 41 -4 18 -11 42 -15 53 -5 11 -4
17 1 12 4 -4 16 -29 26 -54z m-2511 -10 c-9 -16 -10 -16 -11 -1 0 9 3 25 7 35
7 16 8 17 11 1 2 -10 -1 -25 -7 -35z m-14 -45 c-3 -8 -6 -5 -6 6 -1 11 2 17 5
13 3 -3 4 -12 1 -19z m2543 -60 c0 -13 -17 -9 -30 7 -6 8 -8 20 -4 26 5 9 11
7 21 -6 7 -11 13 -22 13 -27z m117 0 c-3 -8 -6 -5 -6 6 -1 11 2 17 5 13 3 -3
4 -12 1 -19z m-40 -105 c-3 -10 -5 -4 -5 12 0 17 2 24 5 18 2 -7 2 -21 0 -30z
m-78 -15 c3 -50 -4 -48 -13 5 -4 20 -3 37 2 37 4 0 9 -19 11 -42z m41 -28 c0
-22 -5 -40 -10 -40 -6 0 -9 12 -6 28 2 15 5 33 5 40 1 6 3 12 6 12 3 0 5 -18
5 -40z m61 -93 c-8 -8 -11 2 -11 34 0 59 14 73 18 19 2 -24 -2 -48 -7 -53z
m-30 -28 l-8 -74 -2 62 c-1 56 6 99 15 90 2 -2 0 -37 -5 -78z m29 -29 c0 -16
4 -30 8 -30 5 0 7 14 4 30 -3 18 0 30 7 30 14 0 15 -67 1 -75 -6 -4 -5 -12 4
-21 22 -21 10 -42 -20 -36 -25 5 -31 21 -13 39 8 8 8 13 0 17 -14 9 -15 76 -1
76 6 0 10 -13 10 -30z m-2250 -99 c0 -9 -12 -42 -27 -72 -28 -54 -28 -54 -31
-22 -4 38 33 127 48 118 5 -3 10 -14 10 -24z m121 -76 c10 -33 22 -78 28 -100
5 -22 17 -67 25 -100 20 -75 35 -200 35 -282 0 -58 -2 -63 -27 -76 -18 -8 -26
-19 -24 -31 3 -15 -1 -18 -25 -13 -26 5 -62 -7 -73 -24 -3 -4 -12 -4 -20 2
-13 8 -11 12 10 28 29 23 22 38 -9 21 -12 -6 -25 -9 -30 -6 -19 12 -22 78 -5
134 23 77 26 122 10 122 -15 0 -38 110 -26 125 9 11 25 85 22 98 -1 4 4 18 13
30 8 12 15 35 16 52 1 29 1 29 9 5 l7 -25 10 25 c6 14 9 28 6 33 -7 12 8 48
19 45 6 -2 19 -31 29 -63z m-100 -26 c-5 -13 -10 -19 -10 -12 -1 15 10 45 15
40 3 -2 0 -15 -5 -28z m2239 27 c0 -3 -4 -8 -10 -11 -5 -3 -10 -1 -10 4 0 6 5
11 10 11 6 0 10 -2 10 -4z m70 -46 c0 -5 -8 -10 -17 -10 -15 0 -16 2 -3 10 19
12 20 12 20 0z m25 -90 c3 -5 1 -10 -4 -10 -6 0 -11 5 -11 10 0 6 2 10 4 10 3
0 8 -4 11 -10z m-1305 -20 c0 -5 -5 -10 -11 -10 -5 0 -7 5 -4 10 3 6 8 10 11
10 2 0 4 -4 4 -10z m1610 -92 c0 -9 4 -8 10 2 8 12 10 9 10 -13 0 -22 -4 -28
-17 -25 -19 3 -32 48 -14 48 6 0 11 -6 11 -12z m-2675 -82 c-9 -46 -36 -50
-31 -5 1 17 9 35 17 39 19 12 21 7 14 -34z m2690 3 c11 -17 -1 -21 -15 -4 -8
9 -8 15 -2 15 6 0 14 -5 17 -11z m-14 -56 c13 -16 12 -17 -3 -4 -17 13 -22 21
-14 21 2 0 10 -8 17 -17z m144 -63 c3 -5 -1 -10 -10 -10 -9 0 -13 5 -10 10 3
6 8 10 10 10 2 0 7 -4 10 -10z m-35 -10 c0 -5 -4 -10 -10 -10 -5 0 -10 5 -10
10 0 6 5 10 10 10 6 0 10 -4 10 -10z m-130 -42 c0 -2 -7 -25 -15 -52 -11 -36
-12 -47 -2 -43 8 3 13 -7 14 -30 1 -27 -2 -34 -15 -31 -21 4 -28 77 -12 109 9
15 8 24 -1 35 -9 11 -8 14 10 14 11 0 21 -1 21 -2z m-1593 -60 c-3 -8 -6 -5
-6 6 -1 11 2 17 5 13 3 -3 4 -12 1 -19z m1663 -13 c-7 -8 -17 -15 -23 -15 -5
0 -2 9 8 20 21 23 35 19 15 -5z m-124 -32 c-10 -10 -19 5 -10 18 6 11 8 11 12
0 2 -7 1 -15 -2 -18z m78 -8 c-4 -8 -8 -15 -10 -15 -2 0 -4 7 -4 15 0 8 4 15
10 15 5 0 7 -7 4 -15z m-19 -154 c-10 -9 -35 30 -35 53 0 17 4 14 21 -13 11
-18 17 -36 14 -40z m453 -36 c-3 -3 -9 2 -12 12 -6 14 -5 15 5 6 7 -7 10 -15
7 -18z m-451 -41 c-3 -3 -12 -4 -19 -1 -8 3 -5 6 6 6 11 1 17 -2 13 -5z
m-1087 -172 c38 24 30 -1 -12 -41 -39 -37 -79 -56 -63 -31 3 6 -1 13 -9 16
-28 11 -17 24 19 24 29 0 35 4 36 23 0 12 3 17 6 10 3 -10 9 -10 23 -1z m1980
-107 c0 -18 -109 -129 -118 -120 -4 3 -2 9 4 13 6 4 10 17 9 30 -2 25 5 28 23
10 21 -21 38 6 24 37 -11 23 -10 25 14 25 14 0 23 4 19 10 -3 6 1 10 9 10 9 0
16 -7 16 -15z m-2215 -68 c17 -35 26 -43 55 -47 l35 -6 -29 -6 c-23 -5 -34 0
-52 19 -13 14 -26 34 -29 44 -8 24 -25 25 -25 1 0 -32 -34 -55 -69 -47 -35 7
-35 8 -20 37 8 15 17 19 39 15 20 -4 33 -1 45 13 10 11 21 20 24 20 3 -1 15
-20 26 -43z m-212 -3 c-3 -9 -6 -25 -7 -37 -1 -31 -28 -27 -37 5 -5 21 -3 30
9 38 26 15 42 12 35 -6z m1947 -5 c13 -7 13 -8 0 -8 -8 0 -26 6 -40 15 l-25
15 25 -7 c14 -3 32 -10 40 -15z m-20 -25 c0 -2 -7 -4 -15 -4 -8 0 -15 4 -15
10 0 5 7 7 15 4 8 -4 15 -8 15 -10z m87 4 c31 -11 41 -34 15 -32 -7 1 -21 2
-33 3 -12 0 -17 5 -13 12 3 6 0 15 -7 20 -20 12 -1 11 38 -3z m263 -8 c-6 -11
-15 -20 -20 -20 -6 0 -2 9 7 20 10 11 19 20 21 20 1 0 -2 -9 -8 -20z m100 -31
c0 -5 -12 -9 -27 -9 -26 0 -26 1 -8 14 20 14 35 12 35 -5z m-303 -5 c-3 -3
-12 -4 -19 -1 -8 3 -5 6 6 6 11 1 17 -2 13 -5z m-47 -24 l45 -7 -56 -2 c-42
-1 -60 3 -70 16 -13 15 -12 16 11 9 14 -5 45 -12 70 -16z m294 -9 c7 -6 16
-23 19 -36 3 -21 0 -25 -20 -25 -15 0 -22 -4 -17 -11 4 -7 -2 -9 -17 -7 -20 2
-24 9 -24 41 0 23 -6 41 -15 47 -11 7 -4 8 22 6 21 -2 44 -8 52 -15z m-684
-22 c0 -6 -4 -7 -10 -4 -5 3 -10 11 -10 16 0 6 5 7 10 4 6 -3 10 -11 10 -16z
m380 -24 c27 -14 58 -25 68 -25 10 0 27 -9 36 -19 17 -19 17 -20 -11 -23 -25
-3 -28 -7 -26 -37 1 -38 22 -58 38 -38 15 20 53 27 59 12 3 -8 0 -15 -5 -17
-6 -2 -1 -14 10 -27 12 -13 21 -30 21 -37 0 -7 3 -20 6 -29 4 -9 3 -15 -2 -14
-23 4 -45 -2 -39 -11 3 -5 -6 -12 -21 -16 -19 -5 -29 -2 -36 9 -5 9 -15 14
-23 10 -11 -4 -13 -1 -8 13 5 13 3 16 -10 11 -8 -3 -17 -2 -19 3 -4 11 -128
22 -128 11 0 -5 7 -14 15 -21 8 -7 15 -17 15 -23 0 -7 -4 -7 -12 1 -7 7 -20
12 -29 12 -10 0 -19 5 -21 11 -5 14 -38 0 -38 -17 0 -8 -5 -14 -11 -14 -5 0
-8 4 -5 9 7 11 -15 72 -32 90 -23 24 -32 -7 -15 -56 27 -79 -12 -101 -59 -34
-38 53 -38 64 -3 71 17 3 29 11 28 18 -2 7 4 12 12 12 8 0 15 7 15 15 0 8 4
15 9 15 5 0 8 11 5 25 -3 17 0 23 8 20 44 -15 66 -13 73 8 4 14 8 17 12 9 7
-17 23 -5 16 13 -3 10 2 15 16 15 12 0 21 -6 21 -13 0 -8 12 -20 26 -27 14 -8
30 -23 36 -35 25 -46 64 -85 86 -85 16 0 22 -6 22 -21 0 -19 1 -19 16 -4 16
15 14 20 -28 63 -60 64 -158 179 -158 186 0 12 21 6 70 -19z m102 7 c-4 -11
-1 -14 11 -9 9 3 26 -2 39 -13 27 -23 9 -26 -30 -6 -15 8 -44 17 -65 21 -57
11 -56 26 1 24 40 -2 49 -6 44 -17z m-495 -44 c-3 -7 -5 -2 -5 12 0 14 2 19 5
13 2 -7 2 -19 0 -25z m-887 18 c0 -3 -4 -8 -10 -11 -5 -3 -10 -1 -10 4 0 6 5
11 10 11 6 0 10 -2 10 -4z m1630 -66 c4 0 10 -7 13 -15 5 -12 2 -12 -18 -3
-25 11 -40 59 -22 70 8 5 13 -3 15 -22 2 -17 7 -30 12 -30z m-115 30 c3 -6 -1
-7 -9 -4 -18 7 -21 14 -7 14 6 0 13 -4 16 -10z m-1060 -19 c-3 -6 -11 -11 -17
-11 -6 0 -6 6 2 15 14 17 26 13 15 -4z m72 -31 c13 -20 4 -33 -19 -25 -7 3
-26 1 -43 -3 -25 -7 -30 -14 -32 -43 -4 -50 -10 -59 -37 -59 -36 0 -41 17 -9
28 16 6 22 11 16 11 -18 1 -16 30 2 37 9 4 15 19 15 38 0 24 3 27 10 16 6 -9
10 -10 10 -3 0 6 12 14 28 16 15 2 32 5 37 6 6 0 16 -8 22 -19z m-997 -30 c-8
-5 -19 -10 -25 -10 -5 0 -3 5 5 10 8 5 20 10 25 10 6 0 3 -5 -5 -10z m-180
-30 c0 -5 -4 -10 -10 -10 -5 0 -10 -4 -10 -10 0 -5 3 -9 8 -9 4 1 20 1 35 0
24 -1 26 -3 17 -20 -5 -11 -19 -23 -30 -26 -25 -8 -27 -35 -2 -35 12 -1 7 -10
-21 -33 -22 -19 -37 -41 -37 -54 0 -14 -6 -23 -15 -23 -8 0 -15 7 -15 15 0 8
-12 40 -27 72 -33 71 -37 82 -25 64 8 -10 11 -6 17 18 7 34 15 41 59 52 45 10
56 10 56 -1z m1184 -16 c9 -3 16 -10 16 -16 0 -5 -4 -7 -8 -4 -5 3 -16 -4 -26
-15 -22 -26 -30 -20 -17 15 11 28 12 29 35 20z m-347 -116 c8 -9 12 -22 7 -29
-10 -17 -43 49 -43 86 l1 30 10 -35 c5 -19 17 -43 25 -52z m173 52 c0 -5 -2
-10 -4 -10 -3 0 -8 5 -11 10 -3 6 -1 10 4 10 6 0 11 -4 11 -10z m181 -32 c1
-7 1 -17 0 -22 -1 -5 5 -16 13 -25 17 -19 16 -71 -1 -71 -16 0 -17 22 -2 37
19 19 -10 27 -30 9 -17 -16 -19 -15 -24 4 -3 14 1 24 14 31 14 7 18 16 14 30
-4 11 -2 19 4 19 6 0 12 -6 12 -12z m-1107 -29 c-3 -5 -10 -7 -15 -3 -5 3 -7
10 -3 15 3 5 10 7 15 3 5 -3 7 -10 3 -15z m853 -4 c-9 -8 -18 -11 -22 -6 -3 6
3 14 12 20 24 13 29 6 10 -14z m-161 -10 c3 -14 13 -25 21 -25 8 0 11 -4 8
-10 -10 -16 -18 -12 -48 25 -26 33 -26 35 -8 35 14 0 23 -9 27 -25z m1049 15
c-3 -5 -11 -10 -16 -10 -6 0 -7 5 -4 10 3 6 11 10 16 10 6 0 7 -4 4 -10z
m-162 -33 c29 -11 17 -40 -21 -52 -21 -6 -23 -5 -13 13 15 29 14 37 -4 22 -18
-15 -19 -7 -3 20 7 10 15 16 18 11 3 -4 13 -10 23 -14z m67 -21 c0 -2 -7 -7
-16 -10 -8 -3 -12 -2 -9 4 6 10 25 14 25 6z m177 -2 c-3 -3 -12 -4 -19 -1 -8
3 -5 6 6 6 11 1 17 -2 13 -5z m-706 -127 c-8 -8 -11 -3 -11 19 1 25 2 27 11
11 8 -14 8 -22 0 -30z m28 -56 c9 -6 11 -16 6 -31 l-7 -23 -14 24 c-21 38 -16
49 15 30z m38 -103 c-3 -8 -6 -5 -6 6 -1 11 2 17 5 13 3 -3 4 -12 1 -19z
m-716 -250 c10 -18 9 -20 -6 -15 -9 4 -19 7 -21 7 -2 0 -4 7 -4 15 0 22 18 18
31 -7z"/>
<path d="M1665 3900 c-3 -5 -1 -10 4 -10 6 0 11 5 11 10 0 6 -2 10 -4 10 -3 0
-8 -4 -11 -10z"/>
<path d="M2325 3613 c-11 -3 -35 -16 -52 -29 -24 -18 -31 -20 -26 -8 5 14 3
15 -15 5 -12 -7 -22 -15 -23 -19 0 -4 -2 -19 -4 -34 -5 -36 6 -41 52 -24 21 7
57 19 80 25 23 6 55 23 71 36 17 14 40 25 53 25 24 0 19 12 -9 18 -36 7 -108
10 -127 5z"/>
<path d="M2338 3459 c-2 -6 -14 -11 -28 -13 -43 -5 -137 -56 -148 -80 -11 -25
1 -56 23 -56 8 0 13 -9 12 -20 -1 -11 -5 -20 -10 -20 -4 0 -5 -4 -2 -10 3 -5
14 -10 23 -10 17 0 53 -33 51 -48 -4 -23 6 -32 48 -46 61 -21 139 -21 147 -1
3 10 -1 15 -12 15 -9 1 -28 7 -42 15 -24 14 -24 14 -4 15 12 0 25 7 28 16 4 9
13 14 22 10 9 -3 12 -2 9 5 -4 5 -15 7 -26 4 -10 -4 -27 -2 -36 4 -15 9 -13
10 12 11 46 0 75 25 74 63 -1 18 -3 25 -6 16 -3 -11 -11 -15 -24 -12 -27 7
-24 17 10 30 24 9 34 7 60 -9 35 -23 35 -22 20 -50 -10 -18 -9 -19 13 -12 23
8 37 8 73 2 15 -2 21 3 23 23 2 20 -5 32 -32 52 -19 15 -41 34 -50 42 -8 9
-38 21 -66 28 -27 6 -50 17 -50 23 0 7 -8 10 -20 7 -11 -3 -20 -1 -20 3 0 12
-68 15 -72 3z"/>
<path d="M2493 3253 c9 -2 25 -2 35 0 9 3 1 5 -18 5 -19 0 -27 -2 -17 -5z"/>
<path d="M2337 2737 c-7 -18 30 -75 53 -82 72 -23 77 -8 18 52 -44 45 -62 52
-71 30z"/>
<path d="M2167 2673 c-13 -13 -7 -21 13 -16 11 3 20 9 20 14 0 10 -24 12 -33
2z"/>
<path d="M2340 2387 c-42 -10 -43 -11 -15 -15 17 -2 35 -8 41 -13 6 -5 16 -4
24 4 10 10 11 9 5 -2 -5 -9 -3 -12 6 -9 19 6 18 42 -1 44 -8 1 -35 -3 -60 -9z"/>
<path d="M2037 2230 c-3 -11 -1 -23 4 -26 5 -3 9 6 9 20 0 31 -6 34 -13 6z"/>
<path d="M2071 2191 c-10 -6 -10 -10 -1 -16 13 -8 24 -1 19 14 -3 6 -10 7 -18
2z"/>
<path d="M1035 1780 c-3 -5 -1 -10 4 -10 6 0 11 5 11 10 0 6 -2 10 -4 10 -3 0
-8 -4 -11 -10z"/>
<path d="M4167 713 c-10 -9 -9 -23 2 -23 5 0 11 7 15 15 5 15 -5 20 -17 8z"/>
<path d="M2514 4729 c-7 -12 13 -29 35 -29 11 0 10 5 -4 20 -21 23 -22 23 -31
9z"/>
<path d="M557 2353 c8 -23 53 -90 53 -80 0 10 -50 97 -56 97 -2 0 0 -8 3 -17z"/>
<path d="M4034 2289 c-12 -13 -26 -18 -40 -15 -16 4 -23 0 -27 -16 -8 -30 -1
-35 21 -15 10 10 21 15 24 11 8 -8 78 23 78 34 0 8 -22 22 -34 22 -2 0 -11 -9
-22 -21z"/>
<path d="M3567 2282 c-36 -40 -7 -50 36 -14 13 12 15 17 5 24 -19 11 -23 10
-41 -10z"/>
<path d="M3482 2239 c-18 -17 -37 -27 -43 -24 -6 4 -5 -2 3 -14 7 -12 14 -17
16 -11 2 6 8 7 14 4 11 -7 58 34 58 52 0 25 -16 22 -48 -7z"/>
<path d="M620 2250 c0 -5 5 -10 11 -10 5 0 7 5 4 10 -3 6 -8 10 -11 10 -2 0
-4 -4 -4 -10z"/>
<path d="M707 2229 c4 -13 8 -18 11 -10 2 7 -1 18 -6 23 -8 8 -9 4 -5 -13z"/>
<path d="M3836 2221 c-6 -8 15 -15 87 -26 25 -4 21 -1 -18 15 -57 23 -62 23
-69 11z"/>
<path d="M3370 2205 c0 -9 -6 -12 -16 -8 -14 5 -15 3 -5 -15 10 -19 9 -22 -9
-22 -35 0 -22 -27 18 -37 29 -8 43 -7 57 3 21 16 29 45 12 41 -7 -1 -11 4 -9
11 3 15 -10 16 -25 1 -7 -7 -9 -3 -6 15 3 15 1 26 -6 26 -6 0 -11 -7 -11 -15z"/>
<path d="M3828 2163 c6 -2 18 -2 25 0 6 3 1 5 -13 5 -14 0 -19 -2 -12 -5z"/>
<path d="M3719 2114 c-11 -14 -10 -18 6 -30 23 -17 44 -2 27 19 -7 8 -9 17 -5
20 3 4 2 7 -4 7 -6 0 -17 -7 -24 -16z"/>
<path d="M3808 2123 c7 -3 16 -2 19 1 4 3 -2 6 -13 5 -11 0 -14 -3 -6 -6z"/>
<path d="M3690 2061 c0 -11 25 -21 51 -21 12 0 17 4 14 11 -4 6 -9 8 -12 5 -3
-2 -16 -1 -29 4 -13 5 -24 6 -24 1z"/>
<path d="M4059 2030 c23 -15 37 -18 44 -11 15 15 6 21 -39 27 l-39 6 34 -22z"/>
<path d="M4150 1888 c-27 -29 -25 -48 5 -48 17 0 25 6 25 17 0 9 7 25 17 35
15 17 15 18 -5 18 -12 0 -30 -10 -42 -22z"/>
<path d="M4235 1850 c33 -22 60 -26 70 -10 4 6 -5 10 -19 10 -14 0 -26 5 -26
10 0 6 -12 10 -27 10 l-28 0 30 -20z"/>
<path d="M3760 1851 c0 -5 13 -19 29 -31 36 -25 46 -52 31 -80 -8 -16 -8 -20
4 -20 8 0 17 6 19 13 3 6 6 0 6 -14 1 -28 31 -64 31 -37 0 8 -5 19 -11 25 -8
8 -8 13 0 18 8 4 6 12 -5 23 -11 10 -13 17 -5 20 16 5 -60 92 -81 92 -10 0
-18 -4 -18 -9z"/>
<path d="M4240 1800 c0 -5 4 -10 9 -10 5 0 17 -22 27 -50 10 -27 21 -50 25
-50 13 0 22 64 10 68 -15 5 -14 42 1 42 6 0 9 3 6 6 -4 3 -17 0 -29 -7 -17 -9
-24 -9 -27 0 -5 14 -22 15 -22 1z"/>
<path d="M4345 1800 c3 -5 8 -10 11 -10 2 0 4 5 4 10 0 6 -5 10 -11 10 -5 0
-7 -4 -4 -10z"/>
<path d="M4463 1772 c-13 -2 -23 -8 -23 -14 0 -6 9 -8 20 -5 11 3 22 1 25 -3
3 -4 21 -8 41 -8 31 0 33 1 17 12 -23 16 -52 23 -80 18z"/>
<path d="M4620 1757 c0 -8 7 -17 15 -21 8 -3 15 -2 15 3 0 5 -7 14 -15 21 -12
10 -15 10 -15 -3z"/>
<path d="M4595 1750 c3 -5 8 -10 11 -10 2 0 4 5 4 10 0 6 -5 10 -11 10 -5 0
-7 -4 -4 -10z"/>
<path d="M3760 1735 c0 -8 5 -15 10 -15 6 0 10 7 10 15 0 8 -4 15 -10 15 -5 0
-10 -7 -10 -15z"/>
<path d="M4570 1720 c0 -5 6 -10 14 -10 8 0 18 5 21 10 3 6 -3 10 -14 10 -12
0 -21 -4 -21 -10z"/>
<path d="M3890 1713 c0 -6 9 -21 20 -34 15 -18 19 -20 20 -8 0 9 -9 24 -20 34
-11 10 -20 13 -20 8z"/>
<path d="M3740 1695 c-8 -9 -8 -15 -2 -15 12 0 26 19 19 26 -2 2 -10 -2 -17
-11z"/>
<path d="M3811 1654 c0 -11 3 -14 6 -6 3 7 2 16 -1 19 -3 4 -6 -2 -5 -13z"/>
<path d="M4570 1650 c0 -6 -11 -8 -25 -4 -29 7 -33 -3 -7 -22 16 -12 15 -13
-5 -14 -18 0 -21 -5 -18 -27 2 -24 7 -28 30 -26 15 1 35 9 45 18 9 8 22 15 28
15 17 0 15 8 -9 41 -20 29 -39 38 -39 19z"/>
<path d="M3862 1630 c0 -14 2 -19 5 -12 2 6 2 18 0 25 -3 6 -5 1 -5 -13z"/>
<path d="M4740 1607 c0 -7 9 -18 20 -25 18 -11 19 -10 8 13 -12 26 -28 34 -28
12z"/>
<path d="M4450 1575 c-27 -14 -68 -75 -51 -75 22 0 61 20 61 32 0 6 10 22 22
35 25 26 9 31 -32 8z"/>
<path d="M4629 1573 c-20 -5 -33 -43 -15 -43 13 0 46 31 46 43 0 7 -5 7 -31 0z"/>
<path d="M797 1418 c-7 -25 -3 -33 12 -23 13 8 15 45 2 45 -5 0 -11 -10 -14
-22z"/>
<path d="M3680 1330 c0 -6 7 -10 15 -10 8 0 15 2 15 4 0 2 -7 6 -15 10 -8 3
-15 1 -15 -4z"/>
<path d="M732 1244 c-25 -17 -30 -54 -8 -54 8 0 18 5 21 10 3 6 15 10 26 10
21 0 25 20 7 38 -15 15 -19 15 -46 -4z"/>
<path d="M4492 1192 c-17 -29 -27 -52 -22 -52 6 0 10 5 10 11 0 5 5 7 10 4 11
-7 43 60 37 78 -2 6 -17 -13 -35 -41z"/>
<path d="M3455 1133 c-3 -27 -8 -63 -11 -80 -4 -25 -2 -31 9 -27 10 3 15 26
16 80 2 84 -5 98 -14 27z"/>
<path d="M3960 1166 c0 -2 7 -7 16 -10 8 -3 12 -2 9 4 -6 10 -25 14 -25 6z"/>
<path d="M4065 1159 c-9 -14 -2 -20 14 -10 8 6 9 11 3 15 -6 3 -14 1 -17 -5z"/>
<path d="M3541 1134 c0 -11 3 -14 6 -6 3 7 2 16 -1 19 -3 4 -6 -2 -5 -13z"/>
<path d="M3993 1133 c-20 -7 -15 -23 7 -23 11 0 20 4 20 9 0 13 -12 19 -27 14z"/>
<path d="M685 1020 c-3 -5 -1 -10 4 -10 6 0 11 5 11 10 0 6 -2 10 -4 10 -3 0
-8 -4 -11 -10z"/>
<path d="M975 708 c11 -30 11 -96 2 -128 -6 -20 -3 -28 14 -38 21 -13 21 -13
14 35 -3 26 -2 67 3 90 10 43 2 63 -26 63 -10 0 -12 -6 -7 -22z"/>
<path d="M1454 626 c-7 -29 1 -46 22 -46 11 0 14 9 12 32 -4 39 -25 48 -34 14z"/>
<path d="M2613 595 c0 -9 4 -14 9 -13 5 2 10 8 10 13 0 5 -5 11 -10 13 -5 1
-9 -4 -9 -13z"/>
</g>
</svg>
